# MagicaVoxel @ Ephtracy

# group
o 

# material
mtllib laser_bolt.mtl
usemtl palette

# normals
vn -1 0 0
vn 1 0 0
vn 0 0 1
vn 0 0 -1
vn 0 -1 0
vn 0 1 0

# texcoords
vt 0.958984 0.5
vt 0.966797 0.5
vt 0.970703 0.5
vt 0.978516 0.5
vt 0.986328 0.5

# verts
v -2 0 -1.9
v -2 0 -2
v -2 0.1 -1.9
v -2 0.1 -2
v -1.3 0 -1.9
v -1.3 0 -2
v -1.3 0.1 -1.9
v -1.3 0.1 -2
v -2 0 -1.9
v -2 0.1 -1.9
v -1.7 0 -1.9
v -1.7 0.1 -1.9
v -1.6 0 -1.9
v -1.6 0.1 -1.9
v -1.5 0 -1.9
v -1.5 0.1 -1.9
v -1.4 0 -1.9
v -1.4 0.1 -1.9
v -1.3 0 -1.9
v -1.3 0.1 -1.9
v -2 0 -2
v -2 0.1 -2
v -1.7 0 -2
v -1.7 0.1 -2
v -1.6 0 -2
v -1.6 0.1 -2
v -1.5 0 -2
v -1.5 0.1 -2
v -1.4 0 -2
v -1.4 0.1 -2
v -1.3 0 -2
v -1.3 0.1 -2
v -2 0 -1.9
v -1.7 0 -1.9
v -1.6 0 -1.9
v -1.5 0 -1.9
v -1.4 0 -1.9
v -1.3 0 -1.9
v -2 0 -2
v -1.7 0 -2
v -1.6 0 -2
v -1.5 0 -2
v -1.4 0 -2
v -1.3 0 -2
v -2 0.1 -1.9
v -1.7 0.1 -1.9
v -1.6 0.1 -1.9
v -1.5 0.1 -1.9
v -1.4 0.1 -1.9
v -1.3 0.1 -1.9
v -2 0.1 -2
v -1.7 0.1 -2
v -1.6 0.1 -2
v -1.5 0.1 -2
v -1.4 0.1 -2
v -1.3 0.1 -2

# faces
f 3/1/1 2/1/1 1/1/1
f 4/1/1 2/1/1 3/1/1
f 5/5/2 6/5/2 7/5/2
f 7/5/2 6/5/2 8/5/2
f 11/1/3 10/1/3 9/1/3
f 12/1/3 10/1/3 11/1/3
f 13/2/3 12/2/3 11/2/3
f 14/2/3 12/2/3 13/2/3
f 15/3/3 14/3/3 13/3/3
f 16/3/3 14/3/3 15/3/3
f 17/4/3 16/4/3 15/4/3
f 18/4/3 16/4/3 17/4/3
f 19/5/3 18/5/3 17/5/3
f 20/5/3 18/5/3 19/5/3
f 21/1/4 22/1/4 23/1/4
f 23/1/4 22/1/4 24/1/4
f 23/2/4 24/2/4 25/2/4
f 25/2/4 24/2/4 26/2/4
f 25/3/4 26/3/4 27/3/4
f 27/3/4 26/3/4 28/3/4
f 27/4/4 28/4/4 29/4/4
f 29/4/4 28/4/4 30/4/4
f 29/5/4 30/5/4 31/5/4
f 31/5/4 30/5/4 32/5/4
f 39/1/5 34/1/5 33/1/5
f 40/2/5 35/2/5 34/2/5
f 40/1/5 34/1/5 39/1/5
f 41/3/5 36/3/5 35/3/5
f 41/2/5 35/2/5 40/2/5
f 42/4/5 37/4/5 36/4/5
f 42/3/5 36/3/5 41/3/5
f 43/5/5 38/5/5 37/5/5
f 43/4/5 37/4/5 42/4/5
f 44/5/5 38/5/5 43/5/5
f 45/1/6 46/1/6 51/1/6
f 46/2/6 47/2/6 52/2/6
f 51/1/6 46/1/6 52/1/6
f 47/3/6 48/3/6 53/3/6
f 52/2/6 47/2/6 53/2/6
f 48/4/6 49/4/6 54/4/6
f 53/3/6 48/3/6 54/3/6
f 49/5/6 50/5/6 55/5/6
f 54/4/6 49/4/6 55/4/6
f 55/5/6 50/5/6 56/5/6
